<svg width="28" height="28" viewBox="0 0 28 28" fill="none" xmlns="http://www.w3.org/2000/svg">
<g id="Icon &#226;&#134;&#147;">
<g id="Icon &#226;&#134;&#147;_2">
<path d="M8.48655 9.09981L8.48427 9.09981C8.25942 9.10041 8.0398 9.16763 7.85314 9.29298C7.66648 9.41834 7.52115 9.5962 7.43552 9.8041C7.34989 10.012 7.3278 10.2406 7.37203 10.4611C7.41627 10.6815 7.52484 10.8839 7.68404 11.0427C7.84324 11.2015 8.04593 11.3095 8.2665 11.3532C8.48707 11.3968 8.71563 11.3741 8.9233 11.2879C9.13098 11.2017 9.30845 11.0559 9.43331 10.869C9.55817 10.682 9.6248 10.4622 9.6248 10.2373C9.6248 9.93562 9.50496 9.64629 9.29164 9.43297C9.07832 9.21965 8.78823 9.09981 8.48655 9.09981Z" fill="#606B85"/>
<path fill-rule="evenodd" clip-rule="evenodd" d="M16.4457 12.4035C16.1893 12.4014 15.9362 12.462 15.7086 12.5801C15.4815 12.6978 15.2865 12.8692 15.1405 13.0792L15.1395 13.0807L13.2417 15.7919L12.3813 15.1039C12.2108 14.9678 12.0135 14.8683 11.8026 14.8122C11.5917 14.7562 11.3715 14.7446 11.1559 14.7782C10.9403 14.8117 10.734 14.8897 10.5501 15.0072C10.3663 15.1247 10.2089 15.279 10.0879 15.4604L7.11756 19.9113C6.97422 20.126 6.96077 20.4023 7.08255 20.63C7.20434 20.8577 7.44159 20.9998 7.6998 20.9998H21.6741C21.932 20.9998 22.169 20.8581 22.2909 20.6309C22.4129 20.4037 22.4 20.1279 22.2575 19.913L17.7425 13.1043L17.7408 13.1018C17.5982 12.8887 17.4056 12.7137 17.1799 12.592C16.9542 12.4703 16.7021 12.4056 16.4457 12.4035ZM16.353 13.823C16.3781 13.8099 16.4061 13.8032 16.4344 13.8034C16.4627 13.8037 16.4906 13.8108 16.5155 13.8243C16.5401 13.8376 16.5612 13.8566 16.5769 13.8798L20.37 19.5998H9.00853L11.2524 16.2376C11.2658 16.2174 11.2835 16.2 11.3039 16.1869C11.3243 16.1739 11.3473 16.1652 11.3712 16.1615C11.3952 16.1578 11.4196 16.1591 11.4431 16.1653C11.4665 16.1715 11.4884 16.1825 11.5073 16.1977L12.9502 17.3512C13.1012 17.472 13.2955 17.5249 13.4869 17.4974C13.6784 17.4698 13.8499 17.3644 13.9608 17.2059L16.2883 13.8809L16.2901 13.8783C16.3063 13.855 16.3278 13.836 16.353 13.823Z" fill="#606B85"/>
<path fill-rule="evenodd" clip-rule="evenodd" d="M4.8998 2.7998C3.74001 2.7998 2.7998 3.74001 2.7998 4.8998V23.0998C2.7998 24.2596 3.74001 25.1998 4.8998 25.1998H23.0998C24.2596 25.1998 25.1998 24.2596 25.1998 23.0998V9.26965C25.1998 8.7127 24.9786 8.17856 24.5847 7.78473L20.2149 3.41488C19.8211 3.02105 19.2869 2.7998 18.73 2.7998H4.8998ZM4.8998 23.7998H23.0998C23.4864 23.7998 23.7998 23.4864 23.7998 23.0998V9.26965C23.7998 9.084 23.7261 8.90595 23.5948 8.77468L19.2249 4.40483C19.0937 4.27355 18.9156 4.1998 18.73 4.1998H4.8998C4.51321 4.1998 4.1998 4.51321 4.1998 4.8998V23.0998C4.1998 23.4864 4.51321 23.7998 4.8998 23.7998Z" fill="#606B85"/>
</g>
</g>
</svg>
