<svg width="28" height="28" viewBox="0 0 28 28" fill="none" xmlns="http://www.w3.org/2000/svg">
<g id="Icon &#226;&#134;&#147;">
<path id="Icon &#226;&#134;&#147;_2" fill-rule="evenodd" clip-rule="evenodd" d="M11.8762 16.4984L11.7704 16.4124C11.3393 16.0183 11.2639 15.3537 11.6157 14.8669C11.9946 14.3427 12.7255 14.2232 13.2482 14.6L13.7003 14.9259L13.8509 15.025C14.6704 15.5152 15.7315 15.3908 16.42 14.7023L19.4148 11.7075L19.5322 11.5803C20.2364 10.7522 20.1996 9.51076 19.4182 8.72929L19.2915 8.61253C18.4669 7.91206 17.2265 7.9528 16.4441 8.73351L14.627 10.5467L14.5247 10.6377C14.0648 11.0014 13.3964 10.9717 12.9738 10.5482C12.5187 10.0921 12.5209 9.35194 12.9788 8.89504L14.796 7.0818L14.9621 6.92422C16.7092 5.34833 19.3987 5.39705 21.077 7.0754L21.2343 7.24082C22.8063 8.98146 22.7486 11.6736 21.0648 13.3574L18.0699 16.3522L17.9011 16.5125C16.3527 17.909 14.0302 18.0511 12.3283 16.8243L11.8762 16.4984ZM15.5217 12.104L15.9738 12.4299L16.0795 12.5158C16.5106 12.91 16.5861 13.5745 16.2343 14.0613C15.8554 14.5855 15.1245 14.705 14.6018 14.3282L14.1497 14.0023L13.999 13.9032C13.1796 13.413 12.1185 13.5374 11.43 14.2259L8.43514 17.2208L8.3178 17.348C7.61362 18.1761 7.65034 19.4175 8.43181 20.1989L8.55844 20.3157C9.38312 21.0162 10.6235 20.9754 11.4059 20.1947L13.223 18.3815L13.3252 18.2906C13.7852 17.9268 14.4536 17.9565 14.8762 18.3801C15.3313 18.8362 15.329 19.5763 14.8711 20.0332L13.054 21.8464L12.8879 22.004C11.1408 23.5799 8.45129 23.5312 6.77293 21.8528L6.61571 21.6874C5.04364 19.9468 5.10142 17.2547 6.78522 15.5709L9.78007 12.576L9.94886 12.4157C11.4973 11.0193 13.8198 10.8772 15.5217 12.104Z" fill="#606B85"/>
</g>
</svg>
