<svg width="28" height="28" viewBox="0 0 28 28" fill="none" xmlns="http://www.w3.org/2000/svg">
<g id="Icon &#226;&#134;&#147;">
<path id="Icon &#226;&#134;&#147;_2" fill-rule="evenodd" clip-rule="evenodd" d="M17.1498 2.7998H10.8498C9.49671 2.7998 8.3998 3.89671 8.3998 5.2498V6.9998H6.2998H3.4998L3.37398 7.01108C3.04743 7.07035 2.7998 7.35616 2.7998 7.6998C2.7998 8.0864 3.11321 8.3998 3.4998 8.3998H5.5998V22.7498C5.5998 24.1039 6.68363 25.1998 8.0358 25.1998H19.9498C21.3029 25.1998 22.3998 24.1029 22.3998 22.7498V8.3998H24.4998L24.6256 8.38853C24.9522 8.32926 25.1998 8.04345 25.1998 7.6998C25.1998 7.31321 24.8864 6.9998 24.4998 6.9998H21.6998H19.5998V5.2498C19.5998 3.89671 18.5029 2.7998 17.1498 2.7998ZM18.1984 6.9998L18.1998 5.2498C18.1998 4.71823 17.8048 4.27892 17.2923 4.20939L17.1498 4.1998H10.8498C10.2699 4.1998 9.7998 4.66991 9.7998 5.2498L9.7984 6.9998H18.1984ZM9.0998 8.3998H6.9984L6.9998 22.7498C6.9998 23.2854 7.38677 23.7214 7.89453 23.7903L8.0358 23.7998H19.9498C20.5297 23.7998 20.9998 23.3297 20.9998 22.7498L20.9984 8.3998H18.8998H9.0998ZM11.8998 12.5998C12.2434 12.5998 12.5293 12.8474 12.5885 13.174L12.5998 13.2998V18.8998C12.5998 19.2864 12.2864 19.5998 11.8998 19.5998C11.5562 19.5998 11.2704 19.3522 11.2111 19.0256L11.1998 18.8998V13.2998C11.1998 12.9132 11.5132 12.5998 11.8998 12.5998ZM16.7885 13.174C16.7293 12.8474 16.4434 12.5998 16.0998 12.5998C15.7132 12.5998 15.3998 12.9132 15.3998 13.2998V18.8998L15.4111 19.0256C15.4704 19.3522 15.7562 19.5998 16.0998 19.5998C16.4864 19.5998 16.7998 19.2864 16.7998 18.8998V13.2998L16.7885 13.174Z" fill="#606B85"/>
</g>
</svg>
