<svg width="28" height="28" viewBox="0 0 28 28" fill="none" xmlns="http://www.w3.org/2000/svg">
<g id="Icon &#226;&#134;&#147;">
<path id="Icon &#226;&#134;&#147;_2" fill-rule="evenodd" clip-rule="evenodd" d="M5.43003 12.9694L13.2565 4.94794C14.4181 3.7151 16.1383 3.22067 17.7559 3.65468C19.3736 4.08869 20.6368 5.3836 21.0602 7.04171C21.4587 8.60228 21.0549 10.256 20.0107 11.4305L19.8074 11.6449L11.9343 19.7195C10.8893 20.7544 9.22782 20.7399 8.20013 19.6868C7.22138 18.6839 7.16144 17.0914 8.03724 16.0087L8.17563 15.8502L16.0408 7.78537C16.3145 7.50471 16.7584 7.50463 17.0322 7.7852C17.2756 8.0346 17.3027 8.42179 17.1135 8.70187L17.0324 8.8014L9.1757 16.8573C8.69759 17.3649 8.70455 18.1716 9.19135 18.6704C9.6407 19.1309 10.3458 19.1722 10.8341 18.7972L10.9514 18.6947L18.8246 10.6201C19.6628 9.79021 19.999 8.56127 19.7039 7.40562C19.4088 6.24996 18.5284 5.34745 17.4009 5.04496C16.354 4.76407 15.2455 5.04114 14.4374 5.77728L14.2564 5.95526L6.42137 13.9856C4.39554 16.0621 4.39555 19.4289 6.42139 21.5055C8.38187 23.515 11.5211 23.5799 13.5576 21.7L13.7575 21.5055L23.3033 11.7198C23.577 11.4392 24.0209 11.4392 24.2947 11.7198C24.538 11.9692 24.5651 12.3564 24.3758 12.6364L24.2947 12.736L14.7489 22.5217C12.1756 25.1595 8.00337 25.1594 5.43002 22.5217C2.92815 19.9571 2.85864 15.8435 5.22154 13.1929L5.43003 12.9694Z" fill="#606B85"/>
</g>
</svg>
