<svg width="28" height="28" viewBox="0 0 28 28" fill="none" xmlns="http://www.w3.org/2000/svg">
<g id="Icon &#226;&#134;&#147;">
<path id="Icon &#226;&#134;&#147;_2" fill-rule="evenodd" clip-rule="evenodd" d="M19.2982 5.72364C19.0254 5.53464 18.6482 5.56164 18.4052 5.80463L18.3242 5.90158C18.1352 6.1744 18.1622 6.55159 18.4052 6.79458L21.4104 9.79961H10.5002L10.2036 9.80647C6.86193 9.96133 4.2002 12.7196 4.2002 16.0996C4.2002 19.579 7.0208 22.3996 10.5002 22.3996H17.5002L17.626 22.3883C17.9526 22.3291 18.2002 22.0433 18.2002 21.6996C18.2002 21.313 17.8868 20.9996 17.5002 20.9996H10.5002L10.2313 20.9924C7.65018 20.8528 5.6002 18.7156 5.6002 16.0996C5.6002 13.3934 7.794 11.1996 10.5002 11.1996H21.4104L18.4052 14.2046L18.3242 14.3016C18.1352 14.5744 18.1622 14.9516 18.4052 15.1946C18.6786 15.468 19.1218 15.468 19.3952 15.1946L23.5946 10.9952C23.6245 10.9654 23.6516 10.9329 23.6757 10.8981L23.6762 10.8976C23.7047 10.8564 23.7284 10.8128 23.7471 10.7676C23.7813 10.685 23.8002 10.5945 23.8002 10.4996C23.8002 10.4052 23.7815 10.3152 23.7476 10.233C23.7135 10.15 23.6627 10.0721 23.5952 10.0046L23.5944 10.0038" fill="#606B85"/>
</g>
</svg>
