<svg width="28" height="28" viewBox="0 0 28 28" fill="none" xmlns="http://www.w3.org/2000/svg">
<g id="Icon &#226;&#134;&#147;">
<g id="Icon &#226;&#134;&#147;_2">
<path fill-rule="evenodd" clip-rule="evenodd" d="M10.5314 16.2754H17.4688L19.1394 20.3887C19.3213 20.8364 19.8316 21.052 20.2794 20.8701C20.7271 20.6883 20.9426 20.1779 20.7608 19.7302L15.4252 6.59296C15.3151 6.31273 15.1262 6.06552 14.8752 5.88742C14.621 5.70709 14.3163 5.60742 14.0001 5.60742C13.6839 5.60742 13.3792 5.70709 13.125 5.88742C12.874 6.06553 12.6851 6.31275 12.575 6.59299L7.23941 19.7302C7.05757 20.1779 7.27311 20.6883 7.72084 20.8701C8.16857 21.052 8.67894 20.8364 8.86079 20.3887L10.5314 16.2754ZM11.2421 14.5254L14.0001 7.7348L16.7581 14.5254H11.2421Z" fill="#606B85"/>
<path d="M5.6001 23.8004C5.6001 23.3172 5.99185 22.9254 6.4751 22.9254H21.5251C22.0083 22.9254 22.4001 23.3172 22.4001 23.8004C22.4001 24.2837 22.0083 24.6754 21.5251 24.6754H6.4751C5.99185 24.6754 5.6001 24.2837 5.6001 23.8004Z" fill="#606B85"/>
</g>
</g>
</svg>
