<svg width="20" height="20" viewBox="0 0 20 20" fill="none" xmlns="http://www.w3.org/2000/svg">
<g id="Icon &#226;&#134;&#147;">
<path id="Icon &#226;&#134;&#147;_2" fill-rule="evenodd" clip-rule="evenodd" d="M18 3.5C18 3.22386 17.7761 3 17.5 3H2.5C2.22386 3 2 3.22386 2 3.5V7.5C2 7.77614 2.22386 8 2.5 8H3V16.5C3 16.7761 3.22386 17 3.5 17H16.5C16.7761 17 17 16.7761 17 16.5V8H17.5C17.7761 8 18 7.77614 18 7.5V3.5ZM4 8H16V15.999H4V8ZM16.5 7H17V4H3V7H3.5H16.5ZM13 9.5C13 9.22386 12.7761 9 12.5 9H7.5C7.22386 9 7 9.22386 7 9.5V11.5C7 11.7761 7.22386 12 7.5 12H12.5C12.7761 12 13 11.7761 13 11.5V9.5ZM8 10H12V11H8V10Z" fill="#606B85"/>
</g>
</svg>
