<svg width="20" height="20" viewBox="0 0 20 20" fill="none" xmlns="http://www.w3.org/2000/svg">
<g id="Icon &#226;&#134;&#147;">
<path id="Icon &#226;&#134;&#147;_2" fill-rule="evenodd" clip-rule="evenodd" d="M12.25 2H7.75C6.7835 2 6 2.7835 6 3.75V5H4.5H2.5L2.41012 5.00806C2.17688 5.05039 2 5.25454 2 5.5C2 5.77614 2.22386 6 2.5 6H4V16.25C4 17.2172 4.77416 18 5.74 18H14.25C15.2165 18 16 17.2165 16 16.25V6H17.5L17.5899 5.99194C17.8231 5.94961 18 5.74546 18 5.5C18 5.22386 17.7761 5 17.5 5H15.5H14V3.75C14 2.7835 13.2165 2 12.25 2ZM12.999 5L13 3.75C13 3.3703 12.7178 3.05651 12.3518 3.00685L12.25 3H7.75C7.33579 3 7 3.33579 7 3.75L6.999 5H12.999ZM6.5 6H4.999L5 16.25C5 16.6326 5.27641 16.944 5.63909 16.9932L5.74 17H14.25C14.6642 17 15 16.6642 15 16.25L14.999 6H13.5H6.5ZM8.5 9C8.74546 9 8.94961 9.17688 8.99194 9.41012L9 9.5V13.5C9 13.7761 8.77614 14 8.5 14C8.25454 14 8.05039 13.8231 8.00806 13.5899L8 13.5V9.5C8 9.22386 8.22386 9 8.5 9ZM11.9919 9.41012C11.9496 9.17688 11.7455 9 11.5 9C11.2239 9 11 9.22386 11 9.5V13.5L11.0081 13.5899C11.0504 13.8231 11.2545 14 11.5 14C11.7761 14 12 13.7761 12 13.5V9.5L11.9919 9.41012Z" fill="#606B85"/>
</g>
</svg>
