<svg width="20" height="20" viewBox="0 0 20 20" fill="none" xmlns="http://www.w3.org/2000/svg">
<g id="Icon prefix &#226;&#134;&#147;">
<path id="Icon &#226;&#134;&#147;" fill-rule="evenodd" clip-rule="evenodd" d="M4.35355 4.85355C4.54882 4.65829 4.54882 4.34171 4.35355 4.14645C4.15829 3.95118 3.84171 3.95118 3.64645 4.14645L0.646447 7.14645C0.451184 7.34171 0.451184 7.65829 0.646447 7.85355L3.64645 10.8536C3.84171 11.0488 4.15829 11.0488 4.35355 10.8536C4.54882 10.6583 4.54882 10.3417 4.35355 10.1464L1.70711 7.5L4.35355 4.85355ZM6.14645 4.14645C6.34171 3.95118 6.65829 3.95118 6.85355 4.14645C7.02712 4.32001 7.0464 4.58944 6.91141 4.78431L6.85355 4.85355L4.70702 7H13.5C15.9853 7 18 9.01472 18 11.5C18 13.9143 16.0988 15.8845 13.7118 15.9951L13.5 16H8.5C8.22386 16 8 15.7761 8 15.5C8 15.2545 8.17688 15.0504 8.41012 15.0081L8.5 15H13.5C15.433 15 17 13.433 17 11.5C17 9.63144 15.5357 8.10487 13.692 8.00518L13.5 8H4.70702L6.85355 10.1464C7.02712 10.32 7.0464 10.5894 6.91141 10.7843L6.85355 10.8536C6.67999 11.0271 6.41056 11.0464 6.21569 10.9114L6.14645 10.8536L3.14645 7.85355C2.97288 7.67999 2.9536 7.41056 3.08859 7.21569L3.14645 7.14645L6.14645 4.14645Z" fill="#121C2D"/>
</g>
</svg>
