<svg width="20" height="20" viewBox="0 0 20 20" fill="none" xmlns="http://www.w3.org/2000/svg">
<g id="Icon prefix &#226;&#134;&#147;">
<path id="Icon &#226;&#134;&#147;" fill-rule="evenodd" clip-rule="evenodd" d="M13.7843 4.08859C13.5894 3.9536 13.32 3.97288 13.1464 4.14645L13.0886 4.21569C12.9536 4.41056 12.9729 4.67999 13.1464 4.85355L15.293 7H7.5L7.28816 7.0049C4.90124 7.11551 3 9.08573 3 11.5C3 13.9853 5.01472 16 7.5 16H12.5L12.5899 15.9919C12.8231 15.9496 13 15.7455 13 15.5C13 15.2239 12.7761 15 12.5 15H7.5L7.30796 14.9948C5.46428 14.8951 4 13.3686 4 11.5C4 9.567 5.567 8 7.5 8H15.293L13.1464 10.1464L13.0886 10.2157C12.9536 10.4106 12.9729 10.68 13.1464 10.8536C13.3417 11.0488 13.6583 11.0488 13.8536 10.8536L16.8536 7.85355C16.8747 7.83239 16.894 7.80933 16.9111 7.78466L16.9114 7.78431C16.9318 7.75484 16.9487 7.72367 16.9621 7.69139C16.9846 7.63693 16.9971 7.5793 16.9995 7.52132C16.9998 7.51422 17 7.50711 17 7.5M16.9622 7.30892C16.9378 7.24983 16.9016 7.19447 16.8536 7.14645L13.8536 4.14645L13.7843 4.08859M16.9622 7.30892C16.9862 7.36702 16.9996 7.43063 17 7.49733L16.9622 7.30892Z" fill="#121C2D"/>
</g>
</svg>
