<svg width="20" height="20" viewBox="0 0 20 20" fill="none" xmlns="http://www.w3.org/2000/svg">
<g id="Icon prefix &#226;&#134;&#147;">
<path id="Icon &#226;&#134;&#147;" d="M7.60508 14.8987C7.42049 14.8987 7.27064 14.7488 7.27064 14.5642C7.27064 14.3796 7.42049 14.2298 7.60508 14.2298H12.3956C12.5802 14.2298 12.73 14.3796 12.73 14.5642C12.73 14.7488 12.5802 14.8987 12.3956 14.8987H7.60508ZM15.4498 9.92727C15.4498 9.74267 15.5996 9.59283 15.7842 9.59283C15.9688 9.59283 16.1187 9.74267 16.1187 9.92727V10.3095C16.1187 10.4941 15.9688 10.644 15.7842 10.644C15.5996 10.644 15.4498 10.4941 15.4498 10.3095V9.92727ZM15.4498 8.35952C15.4498 8.17492 15.5996 8.02507 15.7842 8.02507C15.9688 8.02507 16.1187 8.17492 16.1187 8.35952V8.74178C16.1187 8.92638 15.9688 9.07622 15.7842 9.07622C15.5996 9.07622 15.4498 8.92638 15.4498 8.74178V8.35952ZM4.56876 8.60592C4.38416 8.60592 4.23431 8.45607 4.23431 8.27148C4.23431 8.08688 4.38416 7.93704 4.56876 7.93704H7.42038C7.60498 7.93704 7.75483 8.08688 7.75483 8.27148C7.75483 8.45608 7.60498 8.60592 7.42038 8.60592H4.56876ZM6.50755 17.331H13.4931V13.3848H6.50755V17.331ZM13.8275 18H6.1729C5.9883 18 5.83845 17.8502 5.83845 17.6656V16.0747H4.12693C3.67284 16.0747 3.25968 15.889 2.96082 15.59C2.66182 15.291 2.47607 14.8779 2.47607 14.4239V8.14881C2.47607 7.69541 2.66184 7.28272 2.96082 6.98363C3.25983 6.68346 3.67287 6.49771 4.12693 6.49771H4.47642V5.03914C4.47642 4.85454 4.62627 4.70469 4.81086 4.70469H5.83845V2.33444C5.83845 2.14984 5.9883 2 6.1729 2H13.8275C14.012 2 14.1619 2.14985 14.1619 2.33444V4.70469H15.1895C15.3741 4.70469 15.5239 4.85454 15.5239 5.03914V6.49771H15.8732C16.3273 6.49771 16.7404 6.68348 17.0393 6.98246L17.0575 7.00217C17.3457 7.29977 17.524 7.70476 17.524 8.14882V14.4239C17.524 14.878 17.3383 15.2911 17.0393 15.59C16.7403 15.889 16.3272 16.0747 15.8732 16.0747H14.1619V17.6656C14.1619 17.8502 14.012 18 13.8275 18ZM5.83854 15.4056V14.8253H4.81083C4.62623 14.8253 4.47639 14.6755 4.47639 14.4909V13.0503C4.47639 12.8657 4.62624 12.7158 4.81083 12.7158H15.1895C15.3741 12.7158 15.5239 12.8657 15.5239 13.0503V14.4909C15.5239 14.6755 15.3741 14.8253 15.1895 14.8253H14.1619V15.4056H15.8731C16.1431 15.4056 16.3889 15.2948 16.5666 15.1171C16.7443 14.9394 16.8551 14.6936 16.8551 14.4236V8.14857C16.8551 7.88538 16.7505 7.64528 16.5811 7.46849L16.5666 7.45485C16.3889 7.27713 16.1431 7.16635 15.8731 7.16635H4.12696C3.85701 7.16635 3.6112 7.27713 3.43348 7.45485C3.25542 7.63222 3.14498 7.87816 3.14498 8.14845V14.4235C3.14498 14.6935 3.25576 14.9393 3.43348 15.117C3.6112 15.2947 3.85704 15.4055 4.12696 15.4055L5.83854 15.4056ZM13.4931 5.03893V2.66867H6.50755V6.49759H13.4931V5.03893ZM5.83854 6.4975V5.37337H5.14551V6.4975H5.83854ZM14.855 6.4975V5.37337H14.162V6.4975H14.855ZM5.83854 13.3845H5.14527V14.1562H5.83854V13.3845ZM14.855 13.3845H14.162V14.1562H14.855V13.3845ZM7.60493 16.3388C7.42034 16.3388 7.27049 16.189 7.27049 16.0044C7.27049 15.8198 7.42034 15.6699 7.60493 15.6699H12.3954C12.58 15.6699 12.7299 15.8198 12.7299 16.0044C12.7299 16.189 12.58 16.3388 12.3954 16.3388H7.60493Z" fill="#121C2D"/>
</g>
</svg>
