<svg width="28" height="28" viewBox="0 0 28 28" fill="none" xmlns="http://www.w3.org/2000/svg">
<g id="Icon &#226;&#134;&#147;">
<path id="Icon &#226;&#134;&#147;_2" fill-rule="evenodd" clip-rule="evenodd" d="M9.59499 5.80463C9.32162 5.53127 8.8784 5.53127 8.60504 5.80463L4.40504 10.0046L4.32404 10.1016C4.13505 10.3744 4.16204 10.7516 4.40504 10.9946L8.60504 15.1946L8.70198 15.2756C8.9748 15.4646 9.35199 15.4376 9.59499 15.1946L9.67598 15.0976C9.86498 14.8248 9.83798 14.4476 9.59499 14.2046L6.58984 11.1996H18.9L19.1689 11.2069C21.75 11.3464 23.8 13.4836 23.8 16.0996C23.8 18.8058 21.6062 20.9996 18.9 20.9996H11.9L11.7742 21.0109C11.4476 21.0702 11.2 21.356 11.2 21.6996C11.2 22.0862 11.5134 22.3996 11.9 22.3996H18.9L19.1966 22.3928C22.5383 22.2379 25.2 19.4796 25.2 16.0996C25.2 12.6202 22.3794 9.79961 18.9 9.79961H6.58984L9.59499 6.79458L9.67598 6.69764C9.86498 6.42482 9.83798 6.04763 9.59499 5.80463Z" fill="#606B85"/>
</g>
</svg>
