<svg width="20" height="20" viewBox="0 0 20 20" fill="none" xmlns="http://www.w3.org/2000/svg">
<g id="Icon &#226;&#134;&#147;">
<g id="Icon &#226;&#134;&#147;_2">
<path fill-rule="evenodd" clip-rule="evenodd" d="M10 3.5C8.61929 3.5 7.5 4.61929 7.5 6C7.5 7.38071 8.61929 8.5 10 8.5C11.3807 8.5 12.5 7.38071 12.5 6C12.5 4.61929 11.3807 3.5 10 3.5ZM6.5 6C6.5 4.067 8.067 2.5 10 2.5C11.933 2.5 13.5 4.067 13.5 6C13.5 7.933 11.933 9.5 10 9.5C8.067 9.5 6.5 7.933 6.5 6Z" fill="#121C2D"/>
<path fill-rule="evenodd" clip-rule="evenodd" d="M10 11.5C6.96243 11.5 4.5 13.9624 4.5 17C4.5 17.2761 4.27614 17.5 4 17.5C3.72386 17.5 3.5 17.2761 3.5 17C3.5 13.4101 6.41015 10.5 10 10.5C13.5899 10.5 16.5 13.4101 16.5 17C16.5 17.2761 16.2761 17.5 16 17.5C15.7239 17.5 15.5 17.2761 15.5 17C15.5 13.9624 13.0376 11.5 10 11.5Z" fill="#121C2D"/>
</g>
</g>
</svg>
