<svg width="20" height="20" viewBox="0 0 20 20" fill="none" xmlns="http://www.w3.org/2000/svg">
<g id="Icon &#226;&#134;&#147;">
<path id="Icon &#226;&#134;&#147;_2" fill-rule="evenodd" clip-rule="evenodd" d="M16.6137 1.07225C15.5392 1.20708 14.5496 1.52567 13.7226 2.07855C11.6397 3.47097 10.2897 6.58109 11.1182 8.16249L8.96603 10.3156L8.90817 10.3849C8.77318 10.5798 8.79246 10.8494 8.96603 11.023C9.16129 11.2183 9.47787 11.2183 9.67313 11.023L11.8246 8.87057C12.8969 9.4392 14.6917 9.03772 16.1992 7.92132C18.1523 6.47487 19.255 4.17687 18.9485 1.47693C18.9221 1.2444 18.7381 1.06126 18.5055 1.03607C18.0256 0.984091 17.334 0.98185 16.6137 1.07225ZM12.5992 8.09568C13.3235 8.24506 14.5283 7.91409 15.6043 7.11723C17.1521 5.97097 18.0707 4.21645 17.9948 2.12071L17.9874 2.00325L17.8628 2.00103C17.5274 1.99676 17.1376 2.01478 16.7382 2.0649C15.8062 2.18186 14.9609 2.45399 14.2782 2.91036C12.7102 3.9586 11.6503 6.24263 11.889 7.39134L14.8554 4.42373C15.0506 4.22838 15.3672 4.22838 15.5625 4.42373C15.736 4.59737 15.7553 4.86691 15.6203 5.06186L15.5625 5.13114L12.5992 8.09568ZM9.49902 3.99445C9.77517 3.99445 9.99902 4.2184 9.99902 4.49466C9.99902 4.74023 9.82215 4.94446 9.5889 4.98682L9.49902 4.99487H4.49902C4.25356 4.99487 4.04942 5.17183 4.00708 5.40518L3.99902 5.49509V15.4994C3.99902 15.7449 4.1759 15.9492 4.40915 15.9915L4.49902 15.9996H14.499C14.7445 15.9996 14.9486 15.8226 14.991 15.5893L14.999 15.4994V10.4972C14.999 10.221 15.2229 9.99702 15.499 9.99702C15.7445 9.99702 15.9486 10.174 15.991 10.4073L15.999 10.4972V15.4994C15.999 16.2794 15.4041 16.9204 14.6435 16.9931L14.499 17H4.49902C3.71933 17 3.07857 16.4049 3.00589 15.6439L2.99902 15.4994V5.49509C2.99902 4.71506 3.59391 4.07403 4.35456 4.00132L4.49902 3.99445H9.49902Z" fill="#121C2D"/>
</g>
</svg>
