<svg width="20" height="20" viewBox="0 0 20 20" fill="none" xmlns="http://www.w3.org/2000/svg">
<g id="Icon &#226;&#134;&#147;">
<path id="Icon &#226;&#134;&#147;_2" fill-rule="evenodd" clip-rule="evenodd" d="M15.0434 9.04341H10.9566V4.95659C10.9566 4.42904 10.5276 4 10 4C9.47244 4 9.04341 4.42904 9.04341 4.95659V9.04341H4.95659C4.42904 9.04341 4 9.47244 4 10C4 10.5276 4.42904 10.9566 4.95659 10.9566H9.04341V15.0434C9.04341 15.571 9.47244 16 10 16C10.5276 16 10.9566 15.571 10.9566 15.0434V10.9566H15.0434C15.571 10.9566 16 10.5276 16 10C16 9.47244 15.571 9.04341 15.0434 9.04341Z" fill="#121C2D"/>
</g>
</svg>
